<svg width="26" height="26" viewBox="0 0 26 26" fill="none" xmlns="http://www.w3.org/2000/svg">
<path d="M13 0C5.82028 0 0 5.82028 0 13C0 20.1797 5.82028 26 13 26C20.1797 26 26 20.1797 26 13C26 5.82028 20.1797 0 13 0ZM13 2.51613C18.794 2.51613 23.4839 7.20509 23.4839 13C23.4839 18.794 18.7949 23.4839 13 23.4839C7.20598 23.4839 2.51613 18.7949 2.51613 13C2.51613 7.20598 7.20509 2.51613 13 2.51613ZM20.3494 9.34464L19.1681 8.15378C18.9234 7.90714 18.5252 7.90552 18.2785 8.15021L10.8689 15.5002L7.73469 12.3406C7.49004 12.0939 7.09176 12.0923 6.84513 12.3369L5.65421 13.5183C5.40758 13.7629 5.40596 14.1612 5.65065 14.4079L10.4093 19.2051C10.654 19.4517 11.0523 19.4533 11.2989 19.2087L20.3459 10.2343C20.5925 9.98956 20.594 9.59127 20.3494 9.34464V9.34464Z" fill="#27B893"/>
</svg>
